<svg xmlns="http://www.w3.org/2000/svg" width="645" height="666" viewBox="0 0 645 666">
  <path d="M 385 37 L 311 28 L 260 47 L 210 49 L 179 61 L 148 93 L 132 148 L 89 202 L 66 249 L 54 306 L 36 334 L 27 367 L 30 409 L 44 441 L 57 443 L 47 384 L 52 358 L 66 334 L 115 302 L 144 296 L 175 302 L 187 318 L 171 387 L 148 393 L 127 366 L 118 340 L 97 340 L 89 363 L 97 373 L 112 376 L 135 406 L 133 438 L 140 451 L 155 462 L 174 463 L 211 527 L 274 579 L 249 606 L 210 617 L 166 606 L 111 569 L 109 581 L 119 596 L 171 631 L 235 637 L 273 621 L 301 591 L 316 585 L 366 590 L 456 580 L 499 563 L 545 519 L 568 466 L 600 416 L 610 369 L 607 321 L 616 246 L 598 184 L 552 132 L 486 102 L 418 53 Z M 463 481 L 463 487 L 461 490 L 461 498 L 459 500 L 458 508 L 456 511 L 456 518 L 454 520 L 454 525 L 451 531 L 451 535 L 449 537 L 449 541 L 447 543 L 446 547 L 438 555 L 436 555 L 432 558 L 414 559 L 410 561 L 401 561 L 397 563 L 395 562 L 390 564 L 379 564 L 376 566 L 367 566 L 363 568 L 345 568 L 340 566 L 336 566 L 332 564 L 328 564 L 326 563 L 320 556 L 319 550 L 322 546 L 322 544 L 327 536 L 327 533 L 332 525 L 335 516 L 337 514 L 337 512 L 339 510 L 340 506 L 345 498 L 345 495 L 348 492 L 351 493 L 374 493 L 375 492 L 383 492 L 391 489 L 394 489 L 396 487 L 398 487 L 406 482 L 416 474 L 426 462 L 426 460 L 430 458 L 434 460 L 437 460 L 440 462 L 443 462 L 445 464 L 447 464 L 453 467 Z M 210 431 L 289 431 L 291 433 L 291 436 L 294 441 L 294 446 L 296 448 L 296 451 L 301 460 L 305 464 L 307 468 L 318 479 L 321 480 L 327 485 L 327 487 L 325 489 L 324 493 L 322 495 L 322 498 L 320 500 L 320 502 L 317 506 L 317 510 L 314 516 L 312 518 L 312 521 L 307 528 L 307 530 L 301 540 L 292 540 L 288 543 L 285 543 L 278 548 L 267 543 L 265 543 L 256 537 L 251 532 L 244 527 L 224 507 L 224 506 L 221 504 L 215 495 L 211 491 L 211 489 L 201 474 L 200 470 L 198 468 L 196 464 L 196 461 L 194 458 L 194 457 L 203 447 L 203 445 L 205 443 L 206 439 L 208 436 L 208 433 Z M 523 399 L 529 406 L 530 410 L 534 415 L 537 421 L 537 423 L 540 427 L 540 430 L 542 432 L 542 439 L 544 442 L 544 448 L 545 449 L 545 461 L 544 462 L 544 467 L 542 469 L 542 474 L 540 477 L 540 480 L 537 485 L 537 487 L 535 489 L 535 491 L 533 493 L 532 496 L 528 501 L 525 507 L 522 510 L 519 515 L 504 530 L 496 535 L 493 538 L 491 538 L 485 543 L 482 543 L 481 545 L 478 545 L 474 548 L 472 548 L 469 550 L 468 549 L 469 547 L 469 540 L 471 537 L 471 533 L 472 532 L 471 528 L 474 524 L 474 512 L 476 509 L 476 501 L 479 496 L 479 493 L 481 491 L 481 488 L 484 485 L 489 485 L 495 482 L 502 474 L 502 451 L 497 444 L 497 442 L 499 440 L 499 438 L 502 434 L 502 432 L 504 430 L 504 427 L 506 425 L 507 421 L 509 419 L 509 417 L 514 410 L 514 407 L 521 399 Z M 581 348 L 583 350 L 583 355 L 585 358 L 585 373 L 583 376 L 583 387 L 582 388 L 582 389 L 580 392 L 580 396 L 578 399 L 578 402 L 577 403 L 577 404 L 575 407 L 575 409 L 574 410 L 574 411 L 573 412 L 573 413 L 571 415 L 571 416 L 570 417 L 570 419 L 567 422 L 567 423 L 565 425 L 565 426 L 564 427 L 563 427 L 562 426 L 562 425 L 560 423 L 560 422 L 559 421 L 559 420 L 557 417 L 557 415 L 555 413 L 555 411 L 554 410 L 554 409 L 552 407 L 552 406 L 550 404 L 550 402 L 549 401 L 549 400 L 548 399 L 548 398 L 547 397 L 547 396 L 545 394 L 545 393 L 544 392 L 544 391 L 543 390 L 543 389 L 541 386 L 541 384 L 549 376 L 550 376 L 553 373 L 554 373 L 559 368 L 560 368 L 578 350 L 579 350 Z M 481 292 L 491 298 L 492 309 L 494 313 L 494 322 L 497 326 L 497 329 L 496 330 L 499 336 L 499 345 L 502 349 L 501 352 L 504 358 L 504 364 L 507 367 L 507 372 L 509 375 L 507 377 L 507 379 L 504 383 L 504 386 L 502 388 L 499 394 L 499 396 L 497 398 L 497 400 L 494 404 L 494 406 L 492 408 L 492 410 L 489 415 L 489 417 L 486 423 L 484 425 L 484 428 L 482 431 L 481 435 L 476 439 L 472 439 L 470 441 L 465 442 L 459 446 L 455 446 L 453 444 L 447 444 L 445 442 L 439 441 L 436 438 L 437 432 L 438 431 L 438 405 L 436 402 L 435 394 L 433 391 L 433 389 L 431 387 L 431 385 L 428 379 L 423 372 L 416 365 L 416 364 L 421 359 L 426 351 L 428 350 L 428 349 L 436 341 L 443 331 L 445 330 L 447 327 L 448 327 L 448 326 L 458 316 L 459 313 L 461 312 L 461 311 L 463 310 L 463 309 L 473 299 L 475 295 L 478 292 Z M 316 279 L 322 286 L 322 289 L 324 291 L 324 294 L 327 299 L 327 304 L 329 306 L 329 311 L 331 314 L 331 318 L 334 324 L 337 337 L 339 340 L 339 344 L 341 347 L 328 353 L 314 363 L 308 369 L 296 388 L 296 392 L 294 394 L 294 398 L 291 404 L 291 410 L 283 413 L 226 413 L 225 414 L 209 413 L 200 398 L 190 390 L 192 385 L 191 382 L 193 380 L 193 374 L 196 369 L 196 361 L 198 359 L 198 350 L 201 346 L 201 340 L 203 338 L 203 329 L 206 324 L 205 320 L 206 316 L 212 312 L 225 299 L 231 297 L 249 296 L 254 294 L 268 293 L 272 291 L 275 291 L 278 289 L 283 289 L 286 287 L 293 286 L 296 284 L 299 284 L 301 282 L 304 282 L 313 278 Z M 432 185 L 464 220 L 463 227 L 461 229 L 461 234 L 459 237 L 459 260 L 461 262 L 461 269 L 464 273 L 464 276 L 459 283 L 446 296 L 436 309 L 431 313 L 428 318 L 414 333 L 410 339 L 399 350 L 394 351 L 382 346 L 361 345 L 354 326 L 354 322 L 352 319 L 352 315 L 349 309 L 347 298 L 345 296 L 345 293 L 342 287 L 342 282 L 340 280 L 340 276 L 337 271 L 337 265 L 343 253 L 347 248 L 347 246 L 352 238 L 353 234 L 365 216 L 365 214 L 370 206 L 370 204 L 377 194 L 381 196 L 388 196 L 389 197 L 406 196 L 407 195 L 411 195 L 414 193 L 417 193 L 426 188 L 428 188 Z M 156 169 L 162 177 L 162 179 L 165 183 L 165 185 L 167 187 L 169 194 L 172 198 L 174 205 L 178 212 L 178 214 L 180 217 L 181 223 L 183 225 L 183 228 L 185 231 L 185 235 L 188 239 L 188 246 L 190 248 L 190 252 L 193 257 L 193 260 L 186 267 L 185 267 L 185 268 L 183 269 L 183 270 L 180 272 L 180 273 L 178 274 L 176 277 L 122 277 L 119 279 L 113 279 L 109 282 L 104 282 L 101 284 L 97 284 L 92 287 L 89 287 L 87 289 L 85 289 L 82 292 L 80 292 L 79 291 L 79 283 L 82 276 L 82 272 L 84 270 L 84 265 L 86 262 L 87 257 L 89 255 L 89 252 L 91 249 L 92 244 L 94 242 L 94 240 L 97 234 L 99 232 L 102 226 L 102 224 L 104 222 L 105 219 L 115 205 L 134 183 L 135 183 L 145 174 L 154 169 Z M 177 163 L 178 162 L 185 162 L 186 161 L 215 161 L 216 160 L 227 160 L 231 165 L 231 171 L 233 173 L 234 176 L 240 182 L 249 186 L 262 186 L 266 194 L 274 206 L 274 208 L 279 215 L 279 217 L 284 223 L 284 225 L 286 227 L 287 230 L 289 232 L 289 234 L 291 236 L 297 248 L 299 250 L 299 252 L 296 258 L 292 261 L 284 264 L 284 265 L 281 267 L 278 267 L 276 269 L 271 270 L 268 272 L 265 272 L 263 274 L 257 274 L 256 275 L 252 275 L 248 277 L 227 277 L 223 275 L 214 266 L 213 266 L 210 262 L 211 260 L 211 253 L 208 249 L 208 241 L 206 239 L 206 234 L 203 230 L 203 223 L 201 221 L 201 218 L 198 214 L 198 209 L 196 206 L 196 204 L 193 201 L 193 196 L 191 195 L 190 192 L 188 190 L 188 186 L 187 186 L 185 183 L 185 181 L 180 171 L 180 169 L 177 165 Z M 254 76 L 254 78 L 253 79 L 253 88 L 252 89 L 252 91 L 251 92 L 251 100 L 250 101 L 250 123 L 249 124 L 249 125 L 246 128 L 245 128 L 243 130 L 241 130 L 235 136 L 235 137 L 233 139 L 233 140 L 230 143 L 172 143 L 171 142 L 167 142 L 162 138 L 162 136 L 161 135 L 161 133 L 160 132 L 160 124 L 163 119 L 163 116 L 165 114 L 165 112 L 168 108 L 168 106 L 170 104 L 170 103 L 173 99 L 173 98 L 182 89 L 183 89 L 183 88 L 184 87 L 185 87 L 187 85 L 190 84 L 195 80 L 196 80 L 201 77 L 203 77 L 204 76 L 208 76 L 211 74 L 217 74 L 218 73 L 220 73 L 221 72 L 225 72 L 226 71 L 246 71 L 247 72 L 249 72 Z M 379 62 L 388 64 L 408 75 L 434 97 L 466 120 L 488 130 L 513 138 L 535 150 L 558 170 L 580 202 L 588 222 L 593 252 L 588 282 L 585 286 L 580 305 L 568 325 L 544 351 L 531 360 L 522 352 L 509 301 L 533 294 L 543 287 L 555 273 L 560 262 L 560 234 L 554 221 L 542 206 L 527 198 L 520 198 L 518 196 L 494 198 L 477 206 L 443 169 L 447 157 L 447 135 L 437 113 L 428 104 L 416 97 L 407 94 L 389 94 L 385 88 L 383 76 L 378 65 Z M 333 52 L 337 54 L 341 54 L 343 56 L 347 57 L 357 67 L 363 78 L 363 81 L 365 83 L 365 89 L 367 91 L 369 100 L 355 114 L 350 122 L 348 130 L 346 133 L 346 160 L 352 174 L 358 181 L 358 184 L 342 212 L 337 223 L 325 240 L 322 243 L 320 243 L 310 231 L 297 209 L 297 207 L 294 204 L 294 202 L 289 197 L 289 195 L 284 189 L 282 182 L 279 178 L 279 175 L 284 167 L 284 143 L 279 135 L 274 130 L 268 128 L 266 126 L 266 114 L 268 111 L 269 93 L 271 89 L 271 84 L 273 81 L 273 77 L 283 66 L 293 59 L 301 57 L 306 54 L 313 54 L 317 52 Z" fill="#FFFFFF" fill-rule="evenodd"/>
</svg>
